/* XPM */
static char *pixil_frame_0_2_1667896820[] = {
/* columns rows colors chars-per-pixel */
"50 50 4 1 ",
"  c black",
". c gray50",
"X c #880015",
"o c #B97A57",
/* pixels */
"..................................................",
"..................................................",
"..................................................",
"..................................................",
"..................................................",
"..................................................",
"..................................................",
".........oooooooooooooooooooo.....................",
".........oooooooooooooooooooo.....................",
".........ooXXXXXXXXXXXXXXXXoo.....................",
".........ooXooooooooooooooXoo.....................",
".........ooXooooooooooooooXoo.....................",
".........ooXooooooooooooooXoo.....................",
".........ooXooooooooooooooXoo.....................",
".........ooXooooooooooooooXoo.....................",
".........ooXooooooooooooooXoo.....................",
".........ooXooooooooooooooXoo.....................",
".........ooXooooooooooooooXoo.....................",
".........ooXooooooooooooooXoo.....................",
".........ooXXXXXXXXXXXXXXXXoo.....................",
".........ooXXXXXXXXXXXXXXXXoo.....................",
".........ooXXXXXXXXXXXXXXXXoo.....................",
".........ooXXXXXXXXXXXXXXXXoo.....................",
".........ooXXXXXXXXXXXXXXXXoo.....................",
".........ooXXXXXXXX       Xoo.....................",
".........ooXXXXXXXX       Xoo.....................",
".........ooXXXXXXXX  XXXXXXoo.....................",
".........ooXXXXXXXX  XXXXXXoo.....................",
".........ooXXXXXXXXXXXXXXXXoo.....................",
".........ooXXXXXXXXXXXXXXXXoo.....................",
".........ooXXXXXXXXXXXXXXXXoo.....................",
".........ooXXXXXXXXXXXXXXXXoo.....................",
".........ooXXXXXXXXXXXXXXXXoo.....................",
".........ooXXXXXXXXXXXXXXXXoo.....................",
".........ooXooooooooooooooXoo.....................",
".........ooXooooooooooooooXoo.....................",
".........ooXooooooooooooooXoo.....................",
".........ooXooooooooooooooXoo.....................",
".........ooXooooooooooooooXoo.....................",
".........ooXooooooooooooooXoo.....................",
".........ooXooooooooooooooXoo.....................",
".........ooXooooooooooooooXoo.....................",
".........ooXXXXXXXXXXXXXXXXoo.....................",
".........oooooooooooooooooooo.....................",
".........oooooooooooooooooooo.....................",
"..................................................",
"..................................................",
"..................................................",
"..................................................",
".................................................."
};
