/* XPM */
static char *pixil_frame_0_1_1667896819[] = {
/* columns rows colors chars-per-pixel */
"50 50 2 1 ",
"  c gray50",
". c #FFF200",
/* pixels */
"                                                  ",
"                    ..                            ",
"                   ...                            ",
"                   ...                            ",
"                   ....                           ",
"                   ....                           ",
"                   .....                          ",
"                  ......                          ",
"                  .......                         ",
"                  .......                         ",
"                  .......                         ",
"                 .........                        ",
"                 .........                        ",
"                 .........                        ",
"                ...........                       ",
"                ...........                       ",
"                ............                      ",
"                .............                     ",
"               ...............                    ",
"               .................................  ",
" ...............................................  ",
" .............................................    ",
"   .........................................      ",
"    .......................................       ",
"     .....................................        ",
"        ..................................        ",
"           ...............................        ",
"              ...........................         ",
"                ........................          ",
"                  .....................           ",
"                  .....................           ",
"                 ....................             ",
"                 ..................               ",
"                 ...................              ",
"                 ...................              ",
"                 ....................             ",
"                ........... .........             ",
"                ..........    ........            ",
"                .........      ........           ",
"                ........         ......           ",
"               .........         .......          ",
"               ........            ......         ",
"               ......               .....         ",
"              ....                     ..         ",
"              ...                                 ",
"                                                  ",
"                                                  ",
"                                                  ",
"                                                  ",
"                                                  "
};
