/* XPM */
static char *pixil_frame_01667894823[] = {
/* columns rows colors chars-per-pixel */
"50 50 2 1 ",
"  c black",
". c gray50",
/* pixels */
"..................................................",
"..................................................",
"..................................................",
"......................        ....................",
"....................           ...................",
"...................    .....    ..................",
"...................  .........   .................",
"...................   .........  .................",
"....................      ....   .................",
".....................           ..................",
".........  ............         ..................",
".........   ............  ........................",
"..........    ..........  ...........  ...........",
"...........      .......  ..........   ...........",
".............       ....  ........     ...........",
"................     ...  .....      .............",
"...................    .  ...      ...............",
"....................      .     ..................",
".....................         ....................",
".......................     ......................",
"........................  ........................",
"........................  ........................",
"........................  ........................",
".......................   ........................",
".......................  .........................",
".......................  .........................",
".......................  .........................",
".......................  .........................",
"......................   .........................",
"......................   .........................",
"......................    ........................",
"......................    ........................",
".....................     ........................",
".....................     ........................",
"....................   .   .......................",
"...................   ...   ......................",
"..................    ....  ......................",
".................    .....   .....................",
".................   .......  .....................",
"................   ........  .....................",
"................   ........   ....................",
"..............    ..........  ....................",
"..............   ...........   ...................",
"............    .............   ..................",
"...........    ...............  ..................",
"..........   .................   .................",
".........   ..................   .................",
"........   ....................  .................",
"........   ....................  .................",
".................................................."
};
