/* XPM */
static char *wall1667893750[] = {
/* columns rows colors chars-per-pixel */
"50 50 3 1 ",
"  c None",
". c #0C6624",
"X c #B97A57",
/* pixels */
"                                                  ",
"                                                  ",
"                                                  ",
"                                                  ",
"                       ...............            ",
"                  ..... .  .          ...         ",
"                ..     .   . .           .        ",
"             ...       .  ....            .       ",
"            .  .       .  ...            .        ",
"           ......       ....  ......     .        ",
"         .. ..  .       ........        .         ",
"        .    ....      ....           ..          ",
"        .           .....           .........     ",
"        .          .......                  .     ",
"        .   .... .. ..    .....             ..    ",
"        .  .    ........   ...             .      ",
"        .  ............   ...              .      ",
"         . ..   ..  ..       .........   ..       ",
"          ..     .    ..            .   ..        ",
"          .       .  ..          ...      ..      ",
"          .        ..          ..        . .      ",
"          .        ....... ..  .............      ",
"           .      X    ......            ..       ",
"            .     X          X           ..       ",
"             ..   X          X            .       ",
"              .....   XXXX   X .          .       ",
"                  X   XX  XXXXX............       ",
"                  X     X   XXX        ..         ",
"                  X     X  X  X                   ",
"                  X     X  X  X                   ",
"                 X      X X   X                   ",
"                 X      X X    X                  ",
"                 X     X  XX   X                  ",
"                 X     X    X  X                  ",
"                 X     X  XX   X                  ",
"                 X    X XX     XX                 ",
"                 X    XX        X                 ",
"                X    XX         X                 ",
"                X   XXXXXXX      X                ",
"                X XX      X      XX               ",
"                X X     XX        X               ",
"               X XXX  XXXX         XX             ",
"               X XX    XXX          X             ",
"               X XX       XXX        X            ",
"              XX XXXXXX      XXXXXXX  XX          ",
"              X                         XXXX      ",
"            XX                                    ",
"         XXXX                                     ",
"                                                  ",
"                                                  "
};
